<svg width="80" height="80" viewBox="0 0 80 80" fill="none" xmlns="http://www.w3.org/2000/svg">
<circle cx="40" cy="40" r="40" fill="#F5D6BE"/>
<path d="M19.5818 54.5823C18.5241 55.4698 18.3861 57.0467 19.2736 58.1043C20.1611 59.162 21.738 59.3 22.7957 58.4125L19.5818 54.5823ZM61.9814 24.5759C62.1018 23.2004 61.0843 21.9878 59.7088 21.8675L37.2945 19.9065C35.919 19.7862 34.7064 20.8036 34.5861 22.1791C34.4657 23.5546 35.4832 24.7671 36.8587 24.8875L56.7826 26.6306L55.0395 46.5545C54.9191 47.9299 55.9366 49.1425 57.3121 49.2629C58.6875 49.3832 59.9001 48.3657 60.0204 46.9903L61.9814 24.5759ZM22.7957 58.4125L61.0979 26.2731L57.884 22.4429L19.5818 54.5823L22.7957 58.4125Z" fill="black"/>
</svg>
