<svg width="100" height="100" viewBox="0 0 100 100" fill="none" xmlns="http://www.w3.org/2000/svg">
<path d="M49.1605 1.29732C49.5545 0.68838 50.4455 0.68838 50.8395 1.29732L60.3742 16.0309C60.6314 16.4284 61.132 16.591 61.5736 16.4207L77.9475 10.1052C78.6243 9.84422 79.345 10.3679 79.3059 11.0922L78.3594 28.6163C78.3339 29.0889 78.6433 29.5148 79.1007 29.6365L96.0596 34.1516C96.7605 34.3382 97.0358 35.1855 96.5784 35.7485L85.5123 49.3694C85.2138 49.7368 85.2138 50.2632 85.5123 50.6306L96.5784 64.2515C97.0358 64.8145 96.7605 65.6618 96.0596 65.8484L79.1007 70.3635C78.6433 70.4852 78.3339 70.9111 78.3594 71.3837L79.3059 88.9078C79.345 89.6321 78.6242 90.1558 77.9475 89.8948L61.5736 83.5793C61.132 83.409 60.6314 83.5716 60.3742 83.969L50.8395 98.7027C50.4455 99.3116 49.5545 99.3116 49.1605 98.7027L39.6258 83.969C39.3686 83.5716 38.868 83.409 38.4264 83.5793L22.0525 89.8948C21.3758 90.1558 20.655 89.6321 20.6941 88.9078L21.6406 71.3837C21.6661 70.9111 21.3567 70.4852 20.8993 70.3635L3.94043 65.8484C3.23952 65.6618 2.9642 64.8145 3.42156 64.2515L14.4877 50.6306C14.7862 50.2632 14.7862 49.7368 14.4877 49.3694L3.42156 35.7485C2.9642 35.1855 3.23952 34.3382 3.94043 34.1516L20.8993 29.6365C21.3567 29.5148 21.6661 29.0889 21.6406 28.6163L20.6941 11.0922C20.655 10.3679 21.3758 9.84422 22.0525 10.1052L38.4264 16.4207C38.868 16.591 39.3686 16.4284 39.6258 16.031L49.1605 1.29732Z" stroke="white" stroke-width="1.5"/>
<path d="M34.9978 50.0018L44.6443 59.6482C44.8395 59.8435 45.1561 59.8435 45.3514 59.6482L64.9978 40.0018" stroke="white" stroke-width="1.5" stroke-linecap="round"/>
</svg>
