<svg width="102" height="102" viewBox="0 0 102 102" fill="none" xmlns="http://www.w3.org/2000/svg">
<path d="M1 25C1 22.7909 2.79086 21 5 21H45.5858C45.851 21 46.1054 21.1054 46.2929 21.2929L70.7071 45.7071C70.8946 45.8946 71 46.149 71 46.4142V97C71 99.2091 69.2091 101 67 101H5C2.79086 101 1 99.2091 1 97V25Z" stroke="white" stroke-width="1.5"/>
<path d="M31 21H30.25V21.75H31V21ZM46.2929 21.2929L46.8232 20.7626L46.2929 21.2929ZM70.7071 45.7071L70.1768 46.2374L70.7071 45.7071ZM71 81H70.25V81.75H71V81ZM100.707 25.7071L100.177 26.2374V26.2374L100.707 25.7071ZM76.2929 1.29289L75.7626 1.82322L75.7626 1.82322L76.2929 1.29289ZM31.75 5C31.75 3.20508 33.2051 1.75 35 1.75V0.25C32.3766 0.25 30.25 2.37665 30.25 5H31.75ZM31.75 21V5H30.25V21H31.75ZM31 21.75H45.5858V20.25H31V21.75ZM45.5858 21.75C45.6521 21.75 45.7157 21.7763 45.7626 21.8232L46.8232 20.7626C46.495 20.4344 46.0499 20.25 45.5858 20.25V21.75ZM45.7626 21.8232L70.1768 46.2374L71.2374 45.1768L46.8232 20.7626L45.7626 21.8232ZM70.1768 46.2374C70.2237 46.2843 70.25 46.3479 70.25 46.4142H71.75C71.75 45.9501 71.5656 45.505 71.2374 45.1768L70.1768 46.2374ZM70.25 46.4142V81H71.75V46.4142H70.25ZM97 80.25H71V81.75H97V80.25ZM100.25 77C100.25 78.7949 98.7949 80.25 97 80.25V81.75C99.6234 81.75 101.75 79.6234 101.75 77H100.25ZM100.25 26.4142V77H101.75V26.4142H100.25ZM100.177 26.2374C100.224 26.2843 100.25 26.3479 100.25 26.4142H101.75C101.75 25.9501 101.566 25.505 101.237 25.1768L100.177 26.2374ZM75.7626 1.82322L100.177 26.2374L101.237 25.1768L76.8232 0.762563L75.7626 1.82322ZM75.5858 1.75C75.6521 1.75 75.7157 1.77634 75.7626 1.82322L76.8232 0.762566C76.495 0.434373 76.0499 0.25 75.5858 0.25V1.75ZM35 1.75H75.5858V0.25H35V1.75Z" fill="white"/>
<path d="M46 21.2414C46 21.1523 46.1077 21.1077 46.1707 21.1707L70.8293 45.8293C70.8923 45.8923 70.8477 46 70.7586 46H49C47.3431 46 46 44.6569 46 43V21.2414Z" stroke="white" stroke-width="1.5"/>
<path d="M76 1.24142C76 1.15233 76.1077 1.10771 76.1707 1.17071L100.829 25.8293C100.892 25.8923 100.848 26 100.759 26H79C77.3431 26 76 24.6569 76 23V1.24142Z" stroke="white" stroke-width="1.5"/>
</svg>
